<svg xmlns="http://www.w3.org/2000/svg" version="1.1" xmlns:xlink="http://www.w3.org/1999/xlink" xmlns:svgjs="http://svgjs.dev/svgjs" width="1500" height="405" viewBox="0 0 1500 405"><g transform="matrix(1,0,0,1,-0.9090909090909918,-1.1565912795555278)"><svg viewBox="0 0 396 107" data-background-color="#060307" preserveAspectRatio="xMidYMid meet" height="405" width="1500" xmlns="http://www.w3.org/2000/svg" xmlns:xlink="http://www.w3.org/1999/xlink"><g id="tight-bounds" transform="matrix(1,0,0,1,0.2400000000000091,0.305568560277635)"><svg viewBox="0 0 395.52 106.38880915806483" height="106.38880915806483" width="395.52"><g><svg viewBox="0 0 582.6277458218424 156.71792086476916" height="106.38880915806483" width="395.52"><g transform="matrix(1,0,0,1,187.1077458218424,46.17671302363354)"><svg viewBox="0 0 395.52 64.36449481750208" height="64.36449481750208" width="395.52"><g id="textblocktransform"><svg viewBox="0 0 395.52 64.36449481750208" height="64.36449481750208" width="395.52" id="textblock"><g><svg viewBox="0 0 395.52 64.36449481750208" height="64.36449481750208" width="395.52"><g transform="matrix(1,0,0,1,0,0)"><svg width="395.52" viewBox="2.34 -39.06 302.8704457684716 49.290000000000006" height="64.36449481750208" data-palette-color="#59feff"><g transform="matrix(1,0,0,1,0,0)"><g><svg width="15.711055768471653" viewBox="3.16 -36.36 100.01 36.36" height="5.71209696677258" data-palette-color="#59feff" id="scriptelement" x="286.2455278842358" y="-13.96543848338629"><path d="M16.05 0L16.05 0 3.16 0 3.16-36.36 16.16-36.36Q21.64-36.36 25.6-34.19 29.56-32.01 31.7-27.95 33.84-23.88 33.84-18.22L33.84-18.22Q33.84-12.54 31.7-8.45 29.56-4.37 25.58-2.18 21.59 0 16.05 0ZM10.85-29.78L10.85-6.59 15.73-6.59Q19.14-6.59 21.48-7.8 23.81-9.02 24.99-11.59 26.17-14.15 26.17-18.22L26.17-18.22Q26.17-22.25 24.99-24.8 23.81-27.36 21.48-28.57 19.16-29.78 15.75-29.78L15.75-29.78 10.85-29.78ZM64.1 0L39.52 0 39.52-36.36 64.02-36.36 64.02-30.02 47.21-30.02 47.21-21.36 62.76-21.36 62.76-15.02 47.21-15.02 47.21-6.34 64.1-6.34 64.1 0ZM68.18-36.36L76.72-36.36 85.51-8.74 85.84-8.74 94.65-36.36 103.17-36.36 90.64 0 80.73 0 68.18-36.36Z" opacity="1" transform="matrix(1,0,0,1,0,0)" fill="#59feff" class="undefined-123" data-fill-palette-color="primary" id="tk-123"></path></svg></g></g><path d="M282.992-11.109C282.992-17.245 287.966-22.219 294.101-22.219 300.237-22.219 305.21-17.245 305.21-11.109 305.21-4.974 300.237 0 294.101 0 287.966 0 282.992-4.974 282.992-11.109ZM294.101-0.4C300.016-0.4 304.81-5.195 304.81-11.109 304.81-17.024 300.016-21.819 294.101-21.819 288.186-21.819 283.392-17.024 283.392-11.109 283.392-5.195 288.186-0.4 294.101-0.4Z" fill="#59feff" id="scriptcircle" data-fill-palette-color="primary"></path><g class="wordmark-text-0" data-fill-palette-color="primary" id="text-0"><path d="M16.34 0L16.34 0 2.34 0 2.34-36.36 16.19-36.36Q21.8-36.36 25.9-34.19 29.99-32.01 32.22-27.94 34.45-23.86 34.45-18.18L34.45-18.18Q34.45-12.5 32.23-8.43 30.01-4.35 25.94-2.18 21.88 0 16.34 0ZM12.22-27.98L12.22-8.38 15.98-8.38Q18.68-8.38 20.59-9.25 22.5-10.12 23.5-12.25 24.5-14.38 24.5-18.18L24.5-18.18Q24.5-21.98 23.48-24.11 22.46-26.24 20.5-27.11 18.54-27.98 15.7-27.98L15.7-27.98 12.22-27.98ZM52.2 0.5L52.2 0.5Q47.83 0.5 44.68-1.18 41.53-2.86 39.83-6.01 38.14-9.16 38.14-13.57L38.14-13.57Q38.14-17.79 39.84-20.95 41.55-24.11 44.65-25.87 47.76-27.63 51.99-27.63L51.99-27.63Q55.08-27.63 57.58-26.67 60.08-25.71 61.86-23.89 63.63-22.07 64.59-19.48 65.55-16.89 65.55-13.64L65.55-13.64 65.55-11.36 41.19-11.36 41.19-16.76 56.53-16.76Q56.51-17.93 55.94-18.83 55.36-19.73 54.39-20.23 53.42-20.74 52.2-20.74L52.2-20.74Q51.01-20.74 50.02-20.23 49.02-19.73 48.43-18.84 47.83-17.95 47.8-16.76L47.8-16.76 47.8-10.94Q47.8-9.62 48.35-8.59 48.9-7.56 49.93-6.98 50.96-6.39 52.41-6.39L52.41-6.39Q53.42-6.39 54.27-6.68 55.11-6.96 55.71-7.5 56.32-8.04 56.6-8.81L56.6-8.81 65.55-8.81Q65.09-5.97 63.37-3.88 61.65-1.79 58.81-0.65 55.98 0.5 52.2 0.5ZM86.71-27.27L97.01-27.27 87.85 0 76.49 0 67.32-27.27 77.62-27.27 82.03-9.23 82.31-9.23 86.71-27.27ZM134.86-18.18L134.86-18.18Q134.86-12.11 132.5-7.95 130.14-3.78 126.13-1.64 122.12 0.5 117.18 0.5L117.18 0.5Q112.21 0.5 108.2-1.66 104.2-3.82 101.85-7.98 99.5-12.14 99.5-18.18L99.5-18.18Q99.5-24.25 101.85-28.42 104.2-32.58 108.2-34.72 112.21-36.86 117.18-36.86L117.18-36.86Q122.12-36.86 126.13-34.72 130.14-32.58 132.5-28.42 134.86-24.25 134.86-18.18ZM124.71-18.18L124.71-18.18Q124.71-21.45 123.85-23.69 122.99-25.94 121.31-27.1 119.63-28.27 117.18-28.27L117.18-28.27Q114.73-28.27 113.05-27.1 111.37-25.94 110.51-23.69 109.65-21.45 109.65-18.18L109.65-18.18Q109.65-14.91 110.51-12.67 111.37-10.42 113.05-9.26 114.73-8.1 117.18-8.1L117.18-8.1Q119.63-8.1 121.31-9.26 122.99-10.42 123.85-12.67 124.71-14.91 124.71-18.18ZM149.35 10.23L139.55 10.23 139.55-27.27 149.28-27.27 149.28-22.51 149.49-22.51Q150.03-23.9 151.06-25.06 152.09-26.23 153.61-26.93 155.14-27.63 157.16-27.63L157.16-27.63Q159.86-27.63 162.3-26.19 164.74-24.75 166.28-21.66 167.82-18.57 167.82-13.64L167.82-13.64Q167.82-8.91 166.35-5.81 164.89-2.7 162.45-1.17 160 0.36 157.09 0.36L157.09 0.36Q155.17 0.36 153.67-0.28 152.17-0.91 151.12-2 150.06-3.09 149.49-4.47L149.49-4.47 149.35-4.47 149.35 10.23ZM149.14-13.64L149.14-13.64Q149.14-11.65 149.66-10.2 150.19-8.75 151.15-7.96 152.12-7.17 153.47-7.17L153.47-7.17Q154.82-7.17 155.77-7.95 156.72-8.72 157.23-10.17 157.73-11.61 157.73-13.64L157.73-13.64Q157.73-15.66 157.23-17.11 156.72-18.55 155.77-19.33 154.82-20.1 153.47-20.1L153.47-20.1Q152.12-20.1 151.15-19.33 150.19-18.55 149.66-17.11 149.14-15.66 149.14-13.64ZM200.84-25L191.39-25Q191.25-26.78 190.07-27.77 188.89-28.76 186.49-28.76L186.49-28.76Q184.97-28.76 184-28.4 183.03-28.04 182.57-27.41 182.11-26.79 182.09-25.99L182.09-25.99Q182.05-25.34 182.33-24.81 182.6-24.29 183.21-23.87 183.81-23.46 184.75-23.12 185.69-22.78 186.99-22.51L186.99-22.51 189.97-21.88Q192.99-21.24 195.14-20.19 197.29-19.14 198.66-17.73 200.02-16.32 200.67-14.56 201.32-12.8 201.34-10.72L201.34-10.72Q201.32-7.14 199.54-4.65 197.77-2.17 194.47-0.87 191.18 0.43 186.56 0.43L186.56 0.43Q181.82 0.43 178.3-0.98 174.77-2.38 172.83-5.3 170.89-8.22 170.87-12.78L170.87-12.78 180.24-12.78Q180.33-11.12 181.08-9.98 181.82-8.84 183.18-8.26 184.54-7.67 186.42-7.67L186.42-7.67Q188-7.67 189.07-8.06 190.13-8.45 190.68-9.14 191.23-9.84 191.25-10.72L191.25-10.72Q191.23-11.56 190.71-12.19 190.19-12.82 189-13.33 187.81-13.83 185.78-14.28L185.78-14.28 182.16-15.06Q177.33-16.1 174.55-18.56 171.77-21.02 171.79-25.28L171.79-25.28Q171.77-28.75 173.65-31.35 175.52-33.95 178.85-35.4 182.18-36.86 186.49-36.86L186.49-36.86Q190.9-36.86 194.11-35.39 197.32-33.91 199.07-31.24 200.82-28.57 200.84-25L200.84-25ZM215.04 0L205.24 0 205.24-27.27 215.04-27.27 215.04 0ZM210.16-30.11L210.16-30.11Q208.15-30.11 206.73-31.43 205.31-32.74 205.31-34.59L205.31-34.59Q205.31-36.43 206.73-37.75 208.15-39.06 210.14-39.06L210.14-39.06Q212.15-39.06 213.56-37.75 214.97-36.43 214.97-34.59L214.97-34.59Q214.97-32.74 213.56-31.43 212.15-30.11 210.16-30.11ZM233.15 0.5L233.15 0.5Q228.71 0.5 225.55-1.27 222.39-3.04 220.7-6.21 219.02-9.38 219.02-13.57L219.02-13.57Q219.02-17.76 220.7-20.93 222.39-24.09 225.55-25.86 228.71-27.63 233.15-27.63L233.15-27.63Q237.16-27.63 240.1-26.18 243.04-24.73 244.66-22.1 246.27-19.46 246.29-15.91L246.29-15.91 237.2-15.91Q237-18.06 235.96-19.19 234.93-20.31 233.29-20.31L233.29-20.31Q232.01-20.31 231.05-19.58 230.1-18.84 229.56-17.36 229.03-15.87 229.03-13.64L229.03-13.64Q229.03-11.4 229.56-9.92 230.1-8.43 231.05-7.7 232.01-6.96 233.29-6.96L233.29-6.96Q234.38-6.96 235.21-7.47 236.04-7.97 236.57-8.96 237.09-9.94 237.2-11.36L237.2-11.36 246.29-11.36Q246.24-7.76 244.64-5.09 243.04-2.41 240.12-0.96 237.2 0.5 233.15 0.5ZM264.26-13L259.14-6.46 259.21-18.11 260.49-18.11 267.1-27.27 278.11-27.27 267.03-13 264.26-13ZM260.14 0L250.34 0 250.34-36.36 260.14-36.36 260.14 0ZM278.39 0L267.17 0 260.92-10.8 267.31-17.76 278.39 0Z" fill="#59feff" data-fill-palette-color="primary"></path></g></svg></g></svg></g></svg></g></svg></g><g><svg viewBox="0 0 156.71792086476916 156.71792086476916" height="156.71792086476916" width="156.71792086476916"><g><svg></svg></g><g id="icon-0"><svg viewBox="0 0 156.71792086476916 156.71792086476916" height="156.71792086476916" width="156.71792086476916"><g><path d="M0 78.359c0-43.276 35.083-78.359 78.359-78.359 43.276 0 78.359 35.083 78.359 78.359 0 43.276-35.083 78.359-78.359 78.359-43.276 0-78.359-35.083-78.359-78.359zM78.359 150.913c40.071 0 72.555-32.484 72.554-72.554 0-40.071-32.484-72.555-72.554-72.555-40.071 0-72.555 32.484-72.555 72.555 0 40.071 32.484 72.555 72.555 72.554z" data-fill-palette-color="accent" fill="#59feff" stroke="transparent"></path></g><g transform="matrix(1,0,0,1,33.01277425498593,40.611524470966856)"><svg viewBox="0 0 90.6923723547973 75.49487192283544" height="75.49487192283544" width="90.6923723547973"><g><svg xmlns="http://www.w3.org/2000/svg" xmlns:xlink="http://www.w3.org/1999/xlink" version="1.1" x="0" y="0" viewBox="2.226 10.232 95.547 79.536" enable-background="new 0 0 100 100" xml:space="preserve" height="75.49487192283544" width="90.6923723547973" class="icon-dxe-0" data-fill-palette-color="accent" id="dxe-0"><g fill="#59feff" data-fill-palette-color="accent"><g fill="#59feff" data-fill-palette-color="accent"><polygon fill="#59feff" points="10.886,89.768 24.015,89.768 24.015,40.683 2.226,40.683   " data-fill-palette-color="accent"></polygon><path fill="#59feff" d="M97.773 48.294C97.773 43.045 93.575 42.252 93.575 42.252H66.275S64.434 39.895 66.009 34.905C67.583 29.916 67.85 22.569 66.535 19.419 65.226 16.27 62.86 10.493 56.822 10.232 53.281 10.774 52.097 13.642 52.097 13.642V25.197S40.814 45.667 39.24 45.927C37.661 46.193 31.376 46.981 31.376 46.981V83.206H33.202S46.587 89.767 49.209 89.767H82.287S87.011 88.714 87.011 83.468C87.011 80.058 84.123 77.952 84.123 77.952S91.214 77.429 91.214 71.393C91.214 68.914 87.797 66.668 87.797 66.668S94.362 65.354 94.102 59.844C93.575 56.432 91.736 54.592 91.736 54.592S97.773 53.541 97.773 48.294" data-fill-palette-color="accent"></path></g></g></svg></g></svg></g></svg></g></svg></g></svg></g><defs></defs></svg><rect width="395.52" height="106.38880915806483" fill="none" stroke="none" visibility="hidden"></rect></g></svg></g></svg>